<svg viewBox="0 0 512 512" xmlns="http://www.w3.org/2000/svg">
  <defs>
    <linearGradient id="bg" x1="0%" y1="0%" x2="100%" y2="100%">
      <stop offset="0%" style="stop-color:#0f0f1a;stop-opacity:1"/>
      <stop offset="100%" style="stop-color:#1a1025;stop-opacity:1"/>
    </linearGradient>
    <linearGradient id="icon-grad" x1="0%" y1="0%" x2="100%" y2="100%">
      <stop offset="0%" style="stop-color:#10b981;stop-opacity:1"/>
      <stop offset="100%" style="stop-color:#06b6d4;stop-opacity:1"/>
    </linearGradient>
    <linearGradient id="slash-grad" x1="0%" y1="0%" x2="100%" y2="100%">
      <stop offset="0%" style="stop-color:#6366f1;stop-opacity:1"/>
      <stop offset="50%" style="stop-color:#8b5cf6;stop-opacity:1"/>
      <stop offset="100%" style="stop-color:#06b6d4;stop-opacity:1"/>
    </linearGradient>
    <filter id="glow" x="-30%" y="-30%" width="160%" height="160%">
      <feGaussianBlur stdDeviation="10" result="coloredBlur"/>
      <feMerge>
        <feMergeNode in="coloredBlur"/>
        <feMergeNode in="SourceGraphic"/>
      </feMerge>
    </filter>
  </defs>

  <rect width="512" height="512" rx="90" fill="url(#bg)"/>
  <rect width="512" height="512" rx="90" fill="none" stroke="url(#slash-grad)" stroke-width="1.5" opacity="0.25"/>

  <!-- Scale réduit à 32 au lieu de 46 -->
  <g filter="url(#glow)" transform="translate(256,256) scale(32) translate(-2.5,-5.25)">
    <path fill-rule="evenodd" clip-rule="evenodd"
      d="M4.96424 0.68571C5.0668 0.42931 4.94209 0.13833 4.6857 0.03577C4.4293 -0.06678 4.13832 0.05792 4.03576 0.31432L0.03576 10.3143C-0.0668 10.5707 0.05791 10.8617 0.3143 10.9642C0.5707 11.0668 0.86168 10.9421 0.96424 10.6857L4.96424 0.68571Z"
      fill="url(#slash-grad)"/>
    <path fill-rule="evenodd" clip-rule="evenodd"
      d="M-1.14645 3.14646C-0.95118 3.34172 -0.95118 3.6583 -1.14645 3.85356L-2.79289 5.50001L-1.14645 7.14646C-0.95118 7.34172 -0.95118 7.6583 -1.14645 7.85356C-1.34171 8.0488 -1.65829 8.0488 -1.85355 7.85356L-3.85355 5.85356C-4.04882 5.6583 -4.04882 5.34172 -3.85355 5.14646L-1.85355 3.14646C-1.65829 2.9512 -1.34171 2.9512 -1.14645 3.14646Z"
      fill="url(#icon-grad)"/>
    <path fill-rule="evenodd" clip-rule="evenodd"
      d="M6.14645 3.14646C6.34171 2.9512 6.65829 2.9512 6.85355 3.14646L8.85355 5.14646C9.04882 5.34172 9.04882 5.6583 8.85355 5.85356L6.85355 7.85356C6.65829 8.0488 6.34171 8.0488 6.14645 7.85356C5.95118 7.6583 5.95118 7.34172 6.14645 7.14646L7.79289 5.50001L6.14645 3.85356C5.95118 3.6583 5.95118 3.34172 6.14645 3.14646Z"
      fill="url(#icon-grad)"/>
  </g>
</svg>
